REM DIRINDEX 1\3,1\2\4,1\2\5
REM DIRNAME folder01,folder02,folder03,folder04,folder05
TITLE ""
FILE "III-1-09.mp3" MP3
  TRACK 01 AUDIO
    TITLE "0:"
    INDEX 01 00:00:00
  TRACK 02 AUDIO
    TITLE "3:cjc101_1411"
    INDEX 01 00:00:03
  TRACK 03 AUDIO
    TITLE "0:"
    INDEX 01 00:04:31
  TRACK 04 AUDIO
    TITLE "3:cjc101_1412"
    INDEX 01 00:05:03
  TRACK 05 AUDIO
    TITLE "0:"
    INDEX 01 00:07:39
